<svg width="298" height="298" viewBox="0 0 298 298" fill="none" xmlns="http://www.w3.org/2000/svg">
<path d="M149.091 73.6516L167.806 0.210449L167.671 76.0163L204.02 9.53417L185.035 82.9078L236.788 27.5735L200.169 93.853L264.016 53.18L212.06 108.312L284.082 84.732L220.032 125.202L295.635 120.338L223.546 143.58L298 157.633L222.397 162.227L290.974 194.387L216.586 179.996L275.029 228.236L206.587 195.806L251.246 257.018L192.939 208.643L220.978 278.976L176.522 217.629L186.183 292.759L158.415 222.291L149.091 297.488L139.767 222.291L111.999 292.759L121.66 217.629L77.2037 278.976L105.242 208.643L46.9354 257.018L91.5946 195.806L23.1531 228.236L81.5953 179.996L7.20821 194.387L75.7848 162.227L0.181641 157.633L74.6363 143.58L2.54635 120.338L78.1495 125.202L14.0997 84.732L86.122 108.312L34.1659 53.18L98.0131 93.853L61.3939 27.5735L113.147 82.9078L94.162 9.53417L130.511 76.0163L130.376 0.210449L149.091 73.6516Z" fill="#FFED4F"/>
</svg>
