<svg width="367" height="368" viewBox="0 0 367 368" fill="none" xmlns="http://www.w3.org/2000/svg">
<path d="M249.402 101.402C238.828 109.085 197.031 149.956 185.971 172.536C182.928 148.001 155.226 95.0842 147.503 84.4543C137.974 71.3389 119.623 68.4301 106.511 77.9567C93.3991 87.4833 90.4949 105.834 100.024 118.95C107.785 129.632 149.552 172.331 171.907 182.754C147.014 186.295 95.2279 213.416 84.6536 221.099C71.5414 230.625 68.6372 248.976 78.1661 262.092C87.6951 275.207 106.045 278.116 119.158 268.589C129.468 261.099 169.697 221.851 181.781 199.012C186.649 224.725 212.296 273.479 219.712 283.686C229.241 296.802 247.591 299.71 260.703 290.184C273.816 280.657 276.72 262.306 267.191 249.191C259.775 238.984 221.28 199.564 198.382 186.95C223.838 182.516 273.596 156.383 283.906 148.893C297.018 139.366 299.922 121.015 290.393 107.9C280.864 94.7843 262.514 91.8755 249.402 101.402Z" fill="#FF4242"/>
</svg>
