<svg width="263" height="263" viewBox="0 0 263 263" fill="none" xmlns="http://www.w3.org/2000/svg">
<path d="M233.351 103.022C226.487 103.022 207.203 105.375 187.2 109.298C204.327 97.8579 219.95 85.6338 224.853 80.7311C236.292 69.2915 236.292 50.6612 224.853 39.2216C213.413 27.782 194.783 27.782 183.343 39.2216C178.31 44.255 165.759 60.3359 154.123 77.9202C158.372 57.1328 160.921 36.5415 160.921 29.3508C160.921 13.1392 147.782 0 131.571 0C115.359 0 102.22 13.1392 102.22 29.3508C102.22 36.28 104.638 55.8908 108.626 76.0245C97.1863 58.8978 84.9622 43.2745 80.0596 38.3718C68.6199 26.9322 49.9897 26.9322 38.55 38.3718C27.1104 49.8114 27.1104 68.4417 38.55 79.8813C43.6488 84.9801 60.1873 97.8579 78.0985 109.69C57.3764 105.506 36.8504 102.957 29.7905 102.957C13.5789 102.957 0.439697 116.096 0.439697 132.308C0.439697 148.519 13.5789 161.658 29.7905 161.658C36.6543 161.658 56.069 159.305 76.072 155.318C59.3375 166.561 44.2372 178.393 39.4652 183.165C28.0256 194.605 28.0256 213.235 39.4652 224.674C50.9048 236.114 69.5351 236.114 80.9747 224.674C85.6813 219.968 97.1209 205.39 108.168 189.048C104.508 208.201 102.285 226.374 102.285 232.976C102.285 249.188 115.424 262.327 131.636 262.327C147.848 262.327 160.987 249.188 160.987 232.976C160.987 226.178 158.633 207.09 154.777 187.283C166.02 204.018 177.852 219.118 182.624 223.89C194.064 235.33 212.694 235.33 224.134 223.89C235.573 212.45 235.573 193.82 224.134 182.38C219.492 177.739 205.307 166.626 189.292 155.71C208.51 159.436 226.814 161.593 233.416 161.593C249.628 161.593 262.767 148.454 262.767 132.242C262.767 116.031 249.562 103.022 233.351 103.022Z" fill="#42FF6B"/>
</svg>
